<svg xmlns="http://www.w3.org/2000/svg" viewBox="0 0 512 512">
  <path fill="#25D366" d="M256.064 0C114.848 0 0 114.816 0 256c0 45.184 11.776 88.32 34.112 126.592L0 512l132.288-33.376C171.2 501.696 212.48 512 256 512c141.248 0 256-114.816 256-256S397.248 0 256.064 0zm0 472c-39.424 0-77.76-10.144-111.616-29.344l-7.936-4.608-78.368 19.744 20.896-76.128-5.12-7.904C57.28 336.48 47.936 297.312 47.936 256c0-114.88 93.184-208 208.064-208 114.816 0 208 93.12 208 208s-93.184 208-208 208zm116.512-155.744c-6.336-3.168-37.536-18.528-43.36-20.64-5.824-2.112-10.08-3.168-14.336 3.168-4.256 6.336-16.48 20.64-20.16 24.896-3.68 4.256-7.36 4.8-13.696 1.6-6.336-3.2-26.752-9.856-50.944-31.456-18.816-16.8-31.52-37.6-35.2-43.936-3.68-6.336-.4-9.76 2.784-12.896 2.848-2.816 6.336-7.36 9.504-11.04 3.168-3.68 4.224-6.336 6.336-10.592 2.112-4.256 1.056-7.968-.528-11.136-1.6-3.168-14.336-34.56-19.68-47.36-5.12-12.288-10.336-10.624-14.336-10.816-3.68-.16-7.968-.192-12.224-.192s-11.232 1.6-17.088 7.968c-5.856 6.336-22.4 21.888-22.4 53.44 0 31.552 22.944 62.016 26.176 66.272 3.2 4.256 45.12 69.12 109.44 96.96 15.264 6.592 27.2 10.544 36.512 13.504 15.36 4.864 29.376 4.192 40.416 2.56 12.32-1.824 37.536-15.36 42.848-30.176 5.312-14.816 5.312-27.52 3.68-30.176-1.6-2.656-5.92-4.256-12.288-7.424z"></path>
</svg>
